<svg xmlns="http://www.w3.org/2000/svg" viewBox="556 580 340 340">
  <rect x="556" y="580" width="340" height="340" rx="68" fill="#1a3328"/>
  <defs>
    <clipPath id="c1"><path d="M 576 603 L 876 603 L 876 897.4375 L 576 897.4375 Z" clip-rule="nonzero"/></clipPath>
    <clipPath id="c2"><path d="M 576 683 L 792 683 L 792 897.4375 L 576 897.4375 Z" clip-rule="nonzero"/></clipPath>
  </defs>
  <g clip-path="url(#c1)">
    <path fill="#d4f050" d="M 868.996094 897.125 L 875.769531 862.503906 C 864.5 850.964844 836.617188 826.191406 824.613281 815.414062 C 815.554688 807.300781 815.867188 803.066406 825.953125 795.789062 C 862.695312 769.222656 877.277344 723.722656 864.375 679.664062 C 852.214844 638.085938 813.289062 605.554688 769.261719 604.441406 C 708.296875 602.902344 647.265625 604.003906 586.261719 603.917969 C 581.144531 603.917969 576.808594 604.355469 576.808594 611.199219 C 576.890625 638.46875 576.863281 665.710938 576.863281 695.351562 L 576.890625 695.324219 C 577.285156 694.265625 589.953125 663.960938 634.515625 657.8125 C 635.570312 657.5 636.726562 657.386719 637.925781 657.386719 C 637.953125 657.359375 638.007812 657.359375 638.066406 657.386719 C 638.65625 657.359375 639.261719 657.359375 639.855469 657.386719 C 641.277344 657.414062 642.726562 657.5 644.136719 657.5 C 651.351562 657.5 658.5625 657.472656 665.777344 657.472656 C 696.871094 657.414062 727.980469 657.359375 759.046875 657.5 C 792.265625 657.640625 815.554688 679.480469 815.640625 710.109375 C 815.695312 742.246094 793.324219 763.324219 758.804688 763.609375 C 733.757812 763.804688 708.679688 763.382812 683.628906 764.3125 C 666.847656 764.90625 656.28125 776.375 656.675781 791.105469 C 657.070312 806.226562 667.835938 816.5 684.628906 816.867188 C 703.058594 817.289062 721.511719 817.429688 739.957031 816.921875 C 748.226562 816.667969 754.214844 819.222656 759.945312 825.078125 C 778.980469 844.589844 810.386719 877.855469 829.671875 897.113281 L 868.996094 897.113281 Z"/>
  </g>
  <g clip-path="url(#c2)">
    <path fill="#d4f050" d="M 789.179688 711.648438 C 788.644531 726.601562 777.515625 737.015625 760.917969 737.210938 C 736.347656 737.523438 711.761719 737.183594 687.191406 737.378906 C 652.914062 737.664062 630.191406 759.078125 630.132812 790.878906 C 630.078125 821.480469 653.335938 846.195312 737.882812 843.402344 L 791.730469 897.097656 C 720.667969 897.15625 701.238281 897.15625 681.78125 896.789062 C 623.652344 895.757812 577.976562 850.457031 576.90625 793.390625 C 575.820312 735.222656 619.609375 687.140625 677.683594 684.234375 C 705.523438 682.839844 733.433594 683.5 761.328125 683.953125 C 778.136719 684.207031 789.714844 696.410156 789.179688 711.648438 Z"/>
  </g>
</svg>
