<svg xmlns="http://www.w3.org/2000/svg" xmlns:xlink="http://www.w3.org/1999/xlink" width="2000" zoomAndPan="magnify" viewBox="0 0 1500 1499.999933" height="2000" preserveAspectRatio="xMidYMid meet" version="1.0"><defs><g/><clipPath id="627e988267"><path d="M 576 603 L 876 603 L 876 897.4375 L 576 897.4375 Z M 576 603 " clip-rule="nonzero"/></clipPath><clipPath id="a9f17abf7b"><path d="M 576 683 L 792 683 L 792 897.4375 L 576 897.4375 Z M 576 683 " clip-rule="nonzero"/></clipPath></defs><g clip-path="url(#627e988267)"><path fill="#10113c" d="M 868.996094 897.125 L 875.769531 862.503906 C 864.5 850.964844 836.617188 826.191406 824.613281 815.414062 C 815.554688 807.300781 815.867188 803.066406 825.953125 795.789062 C 862.695312 769.222656 877.277344 723.722656 864.375 679.664062 C 852.214844 638.085938 813.289062 605.554688 769.261719 604.441406 C 708.296875 602.902344 647.265625 604.003906 586.261719 603.917969 C 581.144531 603.917969 576.808594 604.355469 576.808594 611.199219 C 576.890625 638.46875 576.863281 665.710938 576.863281 695.351562 L 576.890625 695.324219 C 577.285156 694.265625 589.953125 663.960938 634.515625 657.8125 C 635.570312 657.5 636.726562 657.386719 637.925781 657.386719 C 637.953125 657.359375 638.007812 657.359375 638.066406 657.386719 C 638.65625 657.359375 639.261719 657.359375 639.855469 657.386719 C 641.277344 657.414062 642.726562 657.5 644.136719 657.5 C 651.351562 657.5 658.5625 657.472656 665.777344 657.472656 C 696.871094 657.414062 727.980469 657.359375 759.046875 657.5 C 792.265625 657.640625 815.554688 679.480469 815.640625 710.109375 C 815.695312 742.246094 793.324219 763.324219 758.804688 763.609375 C 733.757812 763.804688 708.679688 763.382812 683.628906 764.3125 C 666.847656 764.90625 656.28125 776.375 656.675781 791.105469 C 657.070312 806.226562 667.835938 816.5 684.628906 816.867188 C 703.058594 817.289062 721.511719 817.429688 739.957031 816.921875 C 748.226562 816.667969 754.214844 819.222656 759.945312 825.078125 C 778.980469 844.589844 810.386719 877.855469 829.671875 897.113281 L 868.996094 897.113281 Z M 868.996094 897.125 " fill-opacity="1" fill-rule="nonzero"/></g><g clip-path="url(#a9f17abf7b)"><path fill="#10113c" d="M 789.179688 711.648438 C 788.644531 726.601562 777.515625 737.015625 760.917969 737.210938 C 736.347656 737.523438 711.761719 737.183594 687.191406 737.378906 C 652.914062 737.664062 630.191406 759.078125 630.132812 790.878906 C 630.078125 821.480469 653.335938 846.195312 737.882812 843.402344 L 791.730469 897.097656 C 720.667969 897.15625 701.238281 897.15625 681.78125 896.789062 C 623.652344 895.757812 577.976562 850.457031 576.90625 793.390625 C 575.820312 735.222656 619.609375 687.140625 677.683594 684.234375 C 705.523438 682.839844 733.433594 683.5 761.328125 683.953125 C 778.136719 684.207031 789.714844 696.410156 789.179688 711.648438 Z M 789.179688 711.648438 " fill-opacity="1" fill-rule="nonzero"/></g><g fill="#000000" fill-opacity="1"><g transform="translate(505.048814, 961.411001)"><g><path d="M 2.6875 -45.3125 C 3.582031 -45.269531 4.753906 -45.226562 6.203125 -45.1875 C 7.660156 -45.144531 9.09375 -45.125 10.5 -45.125 C 12.5 -45.125 14.414062 -45.144531 16.25 -45.1875 C 18.09375 -45.226562 19.394531 -45.25 20.15625 -45.25 C 23.613281 -45.25 26.484375 -44.753906 28.765625 -43.765625 C 31.046875 -42.785156 32.75 -41.453125 33.875 -39.765625 C 35.007812 -38.085938 35.578125 -36.203125 35.578125 -34.109375 C 35.578125 -32.828125 35.320312 -31.460938 34.8125 -30.015625 C 34.300781 -28.566406 33.414062 -27.203125 32.15625 -25.921875 C 30.894531 -24.640625 29.175781 -23.582031 27 -22.75 C 24.832031 -21.914062 22.082031 -21.5 18.75 -21.5 L 12.609375 -21.5 L 12.609375 -22.78125 L 18.109375 -22.78125 C 21.140625 -22.78125 23.453125 -23.257812 25.046875 -24.21875 C 26.648438 -25.175781 27.738281 -26.457031 28.3125 -28.0625 C 28.894531 -29.664062 29.1875 -31.445312 29.1875 -33.40625 C 29.1875 -36.78125 28.382812 -39.394531 26.78125 -41.25 C 25.1875 -43.101562 22.445312 -44.03125 18.5625 -44.03125 C 16.59375 -44.03125 15.3125 -43.664062 14.71875 -42.9375 C 14.125 -42.21875 13.828125 -40.75 13.828125 -38.53125 L 13.828125 -6.78125 C 13.828125 -5.25 13.953125 -4.097656 14.203125 -3.328125 C 14.460938 -2.554688 14.960938 -2.039062 15.703125 -1.78125 C 16.453125 -1.53125 17.554688 -1.363281 19.015625 -1.28125 L 19.015625 0 C 18.023438 -0.0820312 16.796875 -0.132812 15.328125 -0.15625 C 13.859375 -0.175781 12.375 -0.1875 10.875 -0.1875 C 9.21875 -0.1875 7.660156 -0.175781 6.203125 -0.15625 C 4.753906 -0.132812 3.582031 -0.0820312 2.6875 0 L 2.6875 -1.28125 C 4.132812 -1.363281 5.234375 -1.53125 5.984375 -1.78125 C 6.734375 -2.039062 7.234375 -2.554688 7.484375 -3.328125 C 7.742188 -4.097656 7.875 -5.25 7.875 -6.78125 L 7.875 -38.53125 C 7.875 -40.101562 7.742188 -41.265625 7.484375 -42.015625 C 7.234375 -42.765625 6.734375 -43.273438 5.984375 -43.546875 C 5.234375 -43.828125 4.132812 -43.988281 2.6875 -44.03125 Z M 12.859375 -22.59375 C 15.160156 -22.507812 16.972656 -22.410156 18.296875 -22.296875 C 19.617188 -22.191406 20.695312 -22.097656 21.53125 -22.015625 C 22.363281 -21.929688 23.164062 -21.828125 23.9375 -21.703125 C 26.789062 -21.222656 28.847656 -20.351562 30.109375 -19.09375 C 31.367188 -17.84375 32.296875 -15.894531 32.890625 -13.25 L 34.5 -6.71875 C 34.925781 -4.84375 35.363281 -3.488281 35.8125 -2.65625 C 36.257812 -1.820312 36.953125 -1.425781 37.890625 -1.46875 C 38.609375 -1.507812 39.210938 -1.742188 39.703125 -2.171875 C 40.203125 -2.597656 40.726562 -3.175781 41.28125 -3.90625 L 42.234375 -3.203125 C 41.335938 -1.878906 40.410156 -0.863281 39.453125 -0.15625 C 38.492188 0.539062 37.140625 0.890625 35.390625 0.890625 C 33.816406 0.890625 32.429688 0.421875 31.234375 -0.515625 C 30.035156 -1.453125 29.140625 -3.285156 28.546875 -6.015625 L 27.140625 -12.421875 C 26.753906 -14.253906 26.316406 -15.84375 25.828125 -17.1875 C 25.335938 -18.53125 24.65625 -19.582031 23.78125 -20.34375 C 22.90625 -21.113281 21.613281 -21.5 19.90625 -21.5 L 12.984375 -21.5 Z M 12.859375 -22.59375 "/></g></g></g><g fill="#000000" fill-opacity="1"><g transform="translate(546.518274, 961.411001)"><g><path d="M 17.40625 -33.859375 C 21.164062 -33.859375 24.097656 -32.71875 26.203125 -30.4375 C 28.316406 -28.15625 29.375 -24.601562 29.375 -19.78125 L 6.78125 -19.78125 L 6.71875 -20.984375 L 23.234375 -20.984375 C 23.316406 -23.078125 23.144531 -25.007812 22.71875 -26.78125 C 22.289062 -28.550781 21.617188 -29.96875 20.703125 -31.03125 C 19.785156 -32.101562 18.601562 -32.640625 17.15625 -32.640625 C 15.1875 -32.640625 13.441406 -31.65625 11.921875 -29.6875 C 10.410156 -27.726562 9.507812 -24.617188 9.21875 -20.359375 L 9.40625 -20.09375 C 9.320312 -19.457031 9.257812 -18.753906 9.21875 -17.984375 C 9.175781 -17.210938 9.15625 -16.445312 9.15625 -15.6875 C 9.15625 -12.78125 9.625 -10.28125 10.5625 -8.1875 C 11.5 -6.101562 12.722656 -4.515625 14.234375 -3.421875 C 15.753906 -2.335938 17.320312 -1.796875 18.9375 -1.796875 C 20.21875 -1.796875 21.429688 -2 22.578125 -2.40625 C 23.734375 -2.8125 24.800781 -3.484375 25.78125 -4.421875 C 26.769531 -5.359375 27.628906 -6.613281 28.359375 -8.1875 L 29.625 -7.6875 C 29.15625 -6.269531 28.390625 -4.898438 27.328125 -3.578125 C 26.265625 -2.253906 24.921875 -1.175781 23.296875 -0.34375 C 21.671875 0.476562 19.789062 0.890625 17.65625 0.890625 C 14.59375 0.890625 11.960938 0.1875 9.765625 -1.21875 C 7.566406 -2.625 5.878906 -4.570312 4.703125 -7.0625 C 3.523438 -9.5625 2.9375 -12.4375 2.9375 -15.6875 C 2.9375 -19.4375 3.535156 -22.664062 4.734375 -25.375 C 5.929688 -28.082031 7.617188 -30.171875 9.796875 -31.640625 C 11.972656 -33.117188 14.507812 -33.859375 17.40625 -33.859375 Z M 17.40625 -33.859375 "/></g></g></g><g fill="#000000" fill-opacity="1"><g transform="translate(578.90029, 961.411001)"><g><path d="M 23.359375 -33.859375 C 24.984375 -33.859375 26.335938 -33.644531 27.421875 -33.21875 C 28.515625 -32.789062 29.421875 -32.191406 30.140625 -31.421875 C 30.953125 -30.566406 31.53125 -29.5 31.875 -28.21875 C 32.21875 -26.9375 32.390625 -25.210938 32.390625 -23.046875 L 32.390625 -5.953125 C 32.390625 -4.160156 32.757812 -2.941406 33.5 -2.296875 C 34.25 -1.660156 35.5 -1.34375 37.25 -1.34375 L 37.25 0 C 36.519531 -0.0390625 35.410156 -0.09375 33.921875 -0.15625 C 32.429688 -0.21875 30.976562 -0.25 29.5625 -0.25 C 28.15625 -0.25 26.78125 -0.21875 25.4375 -0.15625 C 24.09375 -0.09375 23.082031 -0.0390625 22.40625 0 L 22.40625 -1.34375 C 23.9375 -1.34375 25.019531 -1.660156 25.65625 -2.296875 C 26.300781 -2.941406 26.625 -4.160156 26.625 -5.953125 L 26.625 -24.453125 C 26.625 -25.773438 26.515625 -26.988281 26.296875 -28.09375 C 26.085938 -29.207031 25.609375 -30.101562 24.859375 -30.78125 C 24.117188 -31.46875 22.976562 -31.8125 21.4375 -31.8125 C 19.644531 -31.8125 18.078125 -31.296875 16.734375 -30.265625 C 15.390625 -29.242188 14.34375 -27.847656 13.59375 -26.078125 C 12.851562 -24.304688 12.484375 -22.332031 12.484375 -20.15625 L 12.484375 -5.953125 C 12.484375 -4.160156 12.800781 -2.941406 13.4375 -2.296875 C 14.082031 -1.660156 15.171875 -1.34375 16.703125 -1.34375 L 16.703125 0 C 16.023438 -0.0390625 15.007812 -0.09375 13.65625 -0.15625 C 12.3125 -0.21875 10.9375 -0.25 9.53125 -0.25 C 8.125 -0.25 6.671875 -0.21875 5.171875 -0.15625 C 3.679688 -0.09375 2.578125 -0.0390625 1.859375 0 L 1.859375 -1.34375 C 3.609375 -1.34375 4.851562 -1.660156 5.59375 -2.296875 C 6.34375 -2.941406 6.71875 -4.160156 6.71875 -5.953125 L 6.71875 -25.984375 C 6.71875 -27.898438 6.375 -29.316406 5.6875 -30.234375 C 5.007812 -31.148438 3.734375 -31.609375 1.859375 -31.609375 L 1.859375 -32.953125 C 3.222656 -32.828125 4.546875 -32.765625 5.828125 -32.765625 C 7.066406 -32.765625 8.25 -32.835938 9.375 -32.984375 C 10.507812 -33.140625 11.546875 -33.363281 12.484375 -33.65625 L 12.484375 -26.109375 C 13.585938 -29.015625 15.128906 -31.03125 17.109375 -32.15625 C 19.097656 -33.289062 21.179688 -33.859375 23.359375 -33.859375 Z M 23.359375 -33.859375 "/></g></g></g><g fill="#000000" fill-opacity="1"><g transform="translate(617.10594, 961.411001)"><g><path d="M 28.09375 -33.28125 L 9.59375 -0.953125 L 16.640625 -0.953125 C 18.347656 -0.953125 19.828125 -1.296875 21.078125 -1.984375 C 22.335938 -2.671875 23.351562 -3.769531 24.125 -5.28125 C 24.894531 -6.789062 25.363281 -8.785156 25.53125 -11.265625 L 27.015625 -11.265625 C 27.015625 -8.535156 27.035156 -6.226562 27.078125 -4.34375 C 27.117188 -2.46875 27.179688 -0.9375 27.265625 0.25 C 25.390625 0.164062 23.4375 0.101562 21.40625 0.0625 C 19.382812 0.0195312 17.367188 0 15.359375 0 C 13.222656 0 11.046875 0.03125 8.828125 0.09375 C 6.609375 0.15625 4.476562 0.226562 2.4375 0.3125 L 20.921875 -32 L 13.890625 -32 C 12.015625 -32 10.445312 -31.65625 9.1875 -30.96875 C 7.925781 -30.289062 6.960938 -29.191406 6.296875 -27.671875 C 5.640625 -26.160156 5.203125 -24.171875 4.984375 -21.703125 L 3.515625 -21.703125 C 3.515625 -24.472656 3.492188 -26.785156 3.453125 -28.640625 C 3.410156 -30.492188 3.347656 -32.019531 3.265625 -33.21875 C 5.140625 -33.132812 7.085938 -33.066406 9.109375 -33.015625 C 11.140625 -32.972656 13.160156 -32.953125 15.171875 -32.953125 C 17.304688 -32.953125 19.484375 -32.984375 21.703125 -33.046875 C 23.921875 -33.117188 26.050781 -33.195312 28.09375 -33.28125 Z M 28.09375 -33.28125 "/></g></g></g><g fill="#000000" fill-opacity="1"><g transform="translate(647.568073, 961.411001)"><g><path d="M 10.9375 0.453125 C 9.1875 0.453125 7.671875 0.125 6.390625 -0.53125 C 5.117188 -1.195312 4.148438 -2.128906 3.484375 -3.328125 C 2.828125 -4.523438 2.5 -5.910156 2.5 -7.484375 C 2.5 -9.359375 2.9375 -10.894531 3.8125 -12.09375 C 4.6875 -13.289062 5.804688 -14.25 7.171875 -14.96875 C 8.535156 -15.695312 9.972656 -16.304688 11.484375 -16.796875 C 13.003906 -17.285156 14.445312 -17.753906 15.8125 -18.203125 C 17.175781 -18.648438 18.296875 -19.171875 19.171875 -19.765625 C 20.046875 -20.367188 20.484375 -21.160156 20.484375 -22.140625 L 20.484375 -26.109375 C 20.484375 -27.898438 20.210938 -29.265625 19.671875 -30.203125 C 19.140625 -31.140625 18.425781 -31.769531 17.53125 -32.09375 C 16.632812 -32.414062 15.632812 -32.578125 14.53125 -32.578125 C 13.457031 -32.578125 12.3125 -32.425781 11.09375 -32.125 C 9.882812 -31.832031 8.914062 -31.210938 8.1875 -30.265625 C 9 -30.097656 9.703125 -29.671875 10.296875 -28.984375 C 10.898438 -28.304688 11.203125 -27.4375 11.203125 -26.375 C 11.203125 -25.300781 10.859375 -24.453125 10.171875 -23.828125 C 9.492188 -23.210938 8.617188 -22.90625 7.546875 -22.90625 C 6.316406 -22.90625 5.410156 -23.300781 4.828125 -24.09375 C 4.253906 -24.882812 3.96875 -25.769531 3.96875 -26.75 C 3.96875 -27.863281 4.242188 -28.757812 4.796875 -29.4375 C 5.347656 -30.125 6.050781 -30.765625 6.90625 -31.359375 C 7.894531 -32.046875 9.164062 -32.632812 10.71875 -33.125 C 12.28125 -33.613281 14.039062 -33.859375 16 -33.859375 C 17.75 -33.859375 19.242188 -33.65625 20.484375 -33.25 C 21.722656 -32.84375 22.742188 -32.253906 23.546875 -31.484375 C 24.660156 -30.460938 25.382812 -29.210938 25.71875 -27.734375 C 26.0625 -26.265625 26.234375 -24.507812 26.234375 -22.46875 L 26.234375 -4.671875 C 26.234375 -3.609375 26.394531 -2.835938 26.71875 -2.359375 C 27.039062 -1.890625 27.539062 -1.65625 28.21875 -1.65625 C 28.6875 -1.65625 29.132812 -1.757812 29.5625 -1.96875 C 29.988281 -2.1875 30.503906 -2.535156 31.109375 -3.015625 L 31.8125 -1.921875 C 30.914062 -1.234375 30.0625 -0.664062 29.25 -0.21875 C 28.4375 0.226562 27.347656 0.453125 25.984375 0.453125 C 24.742188 0.453125 23.71875 0.238281 22.90625 -0.1875 C 22.101562 -0.613281 21.5 -1.242188 21.09375 -2.078125 C 20.6875 -2.910156 20.484375 -3.96875 20.484375 -5.25 C 19.328125 -3.332031 17.945312 -1.898438 16.34375 -0.953125 C 14.75 -0.015625 12.945312 0.453125 10.9375 0.453125 Z M 13.25 -2.109375 C 14.65625 -2.109375 15.96875 -2.515625 17.1875 -3.328125 C 18.40625 -4.140625 19.503906 -5.351562 20.484375 -6.96875 L 20.484375 -19.515625 C 19.972656 -18.796875 19.222656 -18.1875 18.234375 -17.6875 C 17.253906 -17.195312 16.1875 -16.707031 15.03125 -16.21875 C 13.882812 -15.726562 12.785156 -15.148438 11.734375 -14.484375 C 10.691406 -13.828125 9.828125 -12.960938 9.140625 -11.890625 C 8.460938 -10.828125 8.125 -9.445312 8.125 -7.75 C 8.125 -6.039062 8.582031 -4.671875 9.5 -3.640625 C 10.414062 -2.617188 11.664062 -2.109375 13.25 -2.109375 Z M 13.25 -2.109375 "/></g></g></g><g fill="#000000" fill-opacity="1"><g transform="translate(679.438115, 961.411001)"><g><path d="M 21.765625 -33.859375 C 22.910156 -33.859375 23.921875 -33.625 24.796875 -33.15625 C 25.671875 -32.6875 26.351562 -32.078125 26.84375 -31.328125 C 27.332031 -30.578125 27.578125 -29.734375 27.578125 -28.796875 C 27.578125 -27.734375 27.242188 -26.796875 26.578125 -25.984375 C 25.921875 -25.171875 25.039062 -24.765625 23.9375 -24.765625 C 23.039062 -24.765625 22.25 -25.050781 21.5625 -25.625 C 20.882812 -26.207031 20.546875 -27.03125 20.546875 -28.09375 C 20.546875 -28.90625 20.769531 -29.597656 21.21875 -30.171875 C 21.664062 -30.753906 22.164062 -31.210938 22.71875 -31.546875 C 22.414062 -31.972656 21.96875 -32.1875 21.375 -32.1875 C 20.050781 -32.1875 18.832031 -31.789062 17.71875 -31 C 16.613281 -30.21875 15.675781 -29.207031 14.90625 -27.96875 C 14.144531 -26.726562 13.550781 -25.414062 13.125 -24.03125 C 12.695312 -22.644531 12.484375 -21.351562 12.484375 -20.15625 L 12.484375 -6.59375 C 12.484375 -4.5 13.085938 -3.097656 14.296875 -2.390625 C 15.515625 -1.691406 17.171875 -1.34375 19.265625 -1.34375 L 19.265625 0 C 18.285156 -0.0390625 16.898438 -0.09375 15.109375 -0.15625 C 13.316406 -0.21875 11.414062 -0.25 9.40625 -0.25 C 7.957031 -0.25 6.515625 -0.21875 5.078125 -0.15625 C 3.648438 -0.09375 2.578125 -0.0390625 1.859375 0 L 1.859375 -1.34375 C 3.609375 -1.34375 4.851562 -1.660156 5.59375 -2.296875 C 6.34375 -2.941406 6.71875 -4.160156 6.71875 -5.953125 L 6.71875 -25.984375 C 6.71875 -27.898438 6.375 -29.316406 5.6875 -30.234375 C 5.007812 -31.148438 3.734375 -31.609375 1.859375 -31.609375 L 1.859375 -32.953125 C 3.222656 -32.828125 4.546875 -32.765625 5.828125 -32.765625 C 7.066406 -32.765625 8.25 -32.835938 9.375 -32.984375 C 10.507812 -33.140625 11.546875 -33.363281 12.484375 -33.65625 L 12.484375 -25.65625 C 12.953125 -26.894531 13.625 -28.144531 14.5 -29.40625 C 15.375 -30.664062 16.425781 -31.722656 17.65625 -32.578125 C 18.894531 -33.429688 20.265625 -33.859375 21.765625 -33.859375 Z M 21.765625 -33.859375 "/></g></g></g><g fill="#000000" fill-opacity="1"><g transform="translate(707.91638, 961.411001)"><g><path d="M 10.9375 0.453125 C 9.1875 0.453125 7.671875 0.125 6.390625 -0.53125 C 5.117188 -1.195312 4.148438 -2.128906 3.484375 -3.328125 C 2.828125 -4.523438 2.5 -5.910156 2.5 -7.484375 C 2.5 -9.359375 2.9375 -10.894531 3.8125 -12.09375 C 4.6875 -13.289062 5.804688 -14.25 7.171875 -14.96875 C 8.535156 -15.695312 9.972656 -16.304688 11.484375 -16.796875 C 13.003906 -17.285156 14.445312 -17.753906 15.8125 -18.203125 C 17.175781 -18.648438 18.296875 -19.171875 19.171875 -19.765625 C 20.046875 -20.367188 20.484375 -21.160156 20.484375 -22.140625 L 20.484375 -26.109375 C 20.484375 -27.898438 20.210938 -29.265625 19.671875 -30.203125 C 19.140625 -31.140625 18.425781 -31.769531 17.53125 -32.09375 C 16.632812 -32.414062 15.632812 -32.578125 14.53125 -32.578125 C 13.457031 -32.578125 12.3125 -32.425781 11.09375 -32.125 C 9.882812 -31.832031 8.914062 -31.210938 8.1875 -30.265625 C 9 -30.097656 9.703125 -29.671875 10.296875 -28.984375 C 10.898438 -28.304688 11.203125 -27.4375 11.203125 -26.375 C 11.203125 -25.300781 10.859375 -24.453125 10.171875 -23.828125 C 9.492188 -23.210938 8.617188 -22.90625 7.546875 -22.90625 C 6.316406 -22.90625 5.410156 -23.300781 4.828125 -24.09375 C 4.253906 -24.882812 3.96875 -25.769531 3.96875 -26.75 C 3.96875 -27.863281 4.242188 -28.757812 4.796875 -29.4375 C 5.347656 -30.125 6.050781 -30.765625 6.90625 -31.359375 C 7.894531 -32.046875 9.164062 -32.632812 10.71875 -33.125 C 12.28125 -33.613281 14.039062 -33.859375 16 -33.859375 C 17.75 -33.859375 19.242188 -33.65625 20.484375 -33.25 C 21.722656 -32.84375 22.742188 -32.253906 23.546875 -31.484375 C 24.660156 -30.460938 25.382812 -29.210938 25.71875 -27.734375 C 26.0625 -26.265625 26.234375 -24.507812 26.234375 -22.46875 L 26.234375 -4.671875 C 26.234375 -3.609375 26.394531 -2.835938 26.71875 -2.359375 C 27.039062 -1.890625 27.539062 -1.65625 28.21875 -1.65625 C 28.6875 -1.65625 29.132812 -1.757812 29.5625 -1.96875 C 29.988281 -2.1875 30.503906 -2.535156 31.109375 -3.015625 L 31.8125 -1.921875 C 30.914062 -1.234375 30.0625 -0.664062 29.25 -0.21875 C 28.4375 0.226562 27.347656 0.453125 25.984375 0.453125 C 24.742188 0.453125 23.71875 0.238281 22.90625 -0.1875 C 22.101562 -0.613281 21.5 -1.242188 21.09375 -2.078125 C 20.6875 -2.910156 20.484375 -3.96875 20.484375 -5.25 C 19.328125 -3.332031 17.945312 -1.898438 16.34375 -0.953125 C 14.75 -0.015625 12.945312 0.453125 10.9375 0.453125 Z M 13.25 -2.109375 C 14.65625 -2.109375 15.96875 -2.515625 17.1875 -3.328125 C 18.40625 -4.140625 19.503906 -5.351562 20.484375 -6.96875 L 20.484375 -19.515625 C 19.972656 -18.796875 19.222656 -18.1875 18.234375 -17.6875 C 17.253906 -17.195312 16.1875 -16.707031 15.03125 -16.21875 C 13.882812 -15.726562 12.785156 -15.148438 11.734375 -14.484375 C 10.691406 -13.828125 9.828125 -12.960938 9.140625 -11.890625 C 8.460938 -10.828125 8.125 -9.445312 8.125 -7.75 C 8.125 -6.039062 8.582031 -4.671875 9.5 -3.640625 C 10.414062 -2.617188 11.664062 -2.109375 13.25 -2.109375 Z M 13.25 -2.109375 "/></g></g></g><g fill="#000000" fill-opacity="1"><g transform="translate(739.018443, 961.411001)"><g/></g></g><g fill="#000000" fill-opacity="1"><g transform="translate(754.95347, 961.411001)"><g><path d="M 23.75 -46.203125 C 26.5625 -46.203125 28.875 -45.785156 30.6875 -44.953125 C 32.5 -44.128906 34.109375 -43.160156 35.515625 -42.046875 C 36.367188 -41.410156 37.019531 -41.335938 37.46875 -41.828125 C 37.914062 -42.316406 38.226562 -43.476562 38.40625 -45.3125 L 39.875 -45.3125 C 39.789062 -43.726562 39.722656 -41.804688 39.671875 -39.546875 C 39.628906 -37.285156 39.609375 -34.300781 39.609375 -30.59375 L 38.140625 -30.59375 C 37.847656 -32.425781 37.570312 -33.882812 37.3125 -34.96875 C 37.050781 -36.0625 36.738281 -36.988281 36.375 -37.75 C 36.019531 -38.519531 35.539062 -39.289062 34.9375 -40.0625 C 33.613281 -41.8125 31.945312 -43.082031 29.9375 -43.875 C 27.9375 -44.664062 25.828125 -45.0625 23.609375 -45.0625 C 21.523438 -45.0625 19.640625 -44.535156 17.953125 -43.484375 C 16.265625 -42.441406 14.8125 -40.9375 13.59375 -38.96875 C 12.382812 -37.007812 11.445312 -34.644531 10.78125 -31.875 C 10.125 -29.101562 9.796875 -25.988281 9.796875 -22.53125 C 9.796875 -18.945312 10.15625 -15.773438 10.875 -13.015625 C 11.601562 -10.265625 12.617188 -7.953125 13.921875 -6.078125 C 15.222656 -4.203125 16.757812 -2.785156 18.53125 -1.828125 C 20.300781 -0.867188 22.207031 -0.390625 24.25 -0.390625 C 26.175781 -0.390625 28.179688 -0.769531 30.265625 -1.53125 C 32.359375 -2.300781 34.003906 -3.539062 35.203125 -5.25 C 36.140625 -6.488281 36.789062 -7.832031 37.15625 -9.28125 C 37.519531 -10.726562 37.847656 -12.753906 38.140625 -15.359375 L 39.609375 -15.359375 C 39.609375 -11.472656 39.628906 -8.347656 39.671875 -5.984375 C 39.722656 -3.617188 39.789062 -1.625 39.875 0 L 38.40625 0 C 38.226562 -1.832031 37.9375 -2.984375 37.53125 -3.453125 C 37.125 -3.921875 36.453125 -3.859375 35.515625 -3.265625 C 33.941406 -2.148438 32.269531 -1.175781 30.5 -0.34375 C 28.726562 0.476562 26.457031 0.890625 23.6875 0.890625 C 19.625 0.890625 16.066406 -0.0234375 13.015625 -1.859375 C 9.972656 -3.691406 7.609375 -6.332031 5.921875 -9.78125 C 4.234375 -13.238281 3.390625 -17.398438 3.390625 -22.265625 C 3.390625 -27.046875 4.265625 -31.226562 6.015625 -34.8125 C 7.765625 -38.394531 10.164062 -41.1875 13.21875 -43.1875 C 16.269531 -45.195312 19.78125 -46.203125 23.75 -46.203125 Z M 23.75 -46.203125 "/></g></g></g><g fill="#000000" fill-opacity="1"><g transform="translate(798.982779, 961.411001)"><g><path d="M 21.765625 -33.859375 C 22.910156 -33.859375 23.921875 -33.625 24.796875 -33.15625 C 25.671875 -32.6875 26.351562 -32.078125 26.84375 -31.328125 C 27.332031 -30.578125 27.578125 -29.734375 27.578125 -28.796875 C 27.578125 -27.734375 27.242188 -26.796875 26.578125 -25.984375 C 25.921875 -25.171875 25.039062 -24.765625 23.9375 -24.765625 C 23.039062 -24.765625 22.25 -25.050781 21.5625 -25.625 C 20.882812 -26.207031 20.546875 -27.03125 20.546875 -28.09375 C 20.546875 -28.90625 20.769531 -29.597656 21.21875 -30.171875 C 21.664062 -30.753906 22.164062 -31.210938 22.71875 -31.546875 C 22.414062 -31.972656 21.96875 -32.1875 21.375 -32.1875 C 20.050781 -32.1875 18.832031 -31.789062 17.71875 -31 C 16.613281 -30.21875 15.675781 -29.207031 14.90625 -27.96875 C 14.144531 -26.726562 13.550781 -25.414062 13.125 -24.03125 C 12.695312 -22.644531 12.484375 -21.351562 12.484375 -20.15625 L 12.484375 -6.59375 C 12.484375 -4.5 13.085938 -3.097656 14.296875 -2.390625 C 15.515625 -1.691406 17.171875 -1.34375 19.265625 -1.34375 L 19.265625 0 C 18.285156 -0.0390625 16.898438 -0.09375 15.109375 -0.15625 C 13.316406 -0.21875 11.414062 -0.25 9.40625 -0.25 C 7.957031 -0.25 6.515625 -0.21875 5.078125 -0.15625 C 3.648438 -0.09375 2.578125 -0.0390625 1.859375 0 L 1.859375 -1.34375 C 3.609375 -1.34375 4.851562 -1.660156 5.59375 -2.296875 C 6.34375 -2.941406 6.71875 -4.160156 6.71875 -5.953125 L 6.71875 -25.984375 C 6.71875 -27.898438 6.375 -29.316406 5.6875 -30.234375 C 5.007812 -31.148438 3.734375 -31.609375 1.859375 -31.609375 L 1.859375 -32.953125 C 3.222656 -32.828125 4.546875 -32.765625 5.828125 -32.765625 C 7.066406 -32.765625 8.25 -32.835938 9.375 -32.984375 C 10.507812 -33.140625 11.546875 -33.363281 12.484375 -33.65625 L 12.484375 -25.65625 C 12.953125 -26.894531 13.625 -28.144531 14.5 -29.40625 C 15.375 -30.664062 16.425781 -31.722656 17.65625 -32.578125 C 18.894531 -33.429688 20.265625 -33.859375 21.765625 -33.859375 Z M 21.765625 -33.859375 "/></g></g></g><g fill="#000000" fill-opacity="1"><g transform="translate(826.181079, 961.411001)"><g><path d="M 17.40625 -33.859375 C 21.164062 -33.859375 24.097656 -32.71875 26.203125 -30.4375 C 28.316406 -28.15625 29.375 -24.601562 29.375 -19.78125 L 6.78125 -19.78125 L 6.71875 -20.984375 L 23.234375 -20.984375 C 23.316406 -23.078125 23.144531 -25.007812 22.71875 -26.78125 C 22.289062 -28.550781 21.617188 -29.96875 20.703125 -31.03125 C 19.785156 -32.101562 18.601562 -32.640625 17.15625 -32.640625 C 15.1875 -32.640625 13.441406 -31.65625 11.921875 -29.6875 C 10.410156 -27.726562 9.507812 -24.617188 9.21875 -20.359375 L 9.40625 -20.09375 C 9.320312 -19.457031 9.257812 -18.753906 9.21875 -17.984375 C 9.175781 -17.210938 9.15625 -16.445312 9.15625 -15.6875 C 9.15625 -12.78125 9.625 -10.28125 10.5625 -8.1875 C 11.5 -6.101562 12.722656 -4.515625 14.234375 -3.421875 C 15.753906 -2.335938 17.320312 -1.796875 18.9375 -1.796875 C 20.21875 -1.796875 21.429688 -2 22.578125 -2.40625 C 23.734375 -2.8125 24.800781 -3.484375 25.78125 -4.421875 C 26.769531 -5.359375 27.628906 -6.613281 28.359375 -8.1875 L 29.625 -7.6875 C 29.15625 -6.269531 28.390625 -4.898438 27.328125 -3.578125 C 26.265625 -2.253906 24.921875 -1.175781 23.296875 -0.34375 C 21.671875 0.476562 19.789062 0.890625 17.65625 0.890625 C 14.59375 0.890625 11.960938 0.1875 9.765625 -1.21875 C 7.566406 -2.625 5.878906 -4.570312 4.703125 -7.0625 C 3.523438 -9.5625 2.9375 -12.4375 2.9375 -15.6875 C 2.9375 -19.4375 3.535156 -22.664062 4.734375 -25.375 C 5.929688 -28.082031 7.617188 -30.171875 9.796875 -31.640625 C 11.972656 -33.117188 14.507812 -33.859375 17.40625 -33.859375 Z M 17.40625 -33.859375 "/></g></g></g><g fill="#000000" fill-opacity="1"><g transform="translate(858.563095, 961.411001)"><g><path d="M 10.9375 0.453125 C 9.1875 0.453125 7.671875 0.125 6.390625 -0.53125 C 5.117188 -1.195312 4.148438 -2.128906 3.484375 -3.328125 C 2.828125 -4.523438 2.5 -5.910156 2.5 -7.484375 C 2.5 -9.359375 2.9375 -10.894531 3.8125 -12.09375 C 4.6875 -13.289062 5.804688 -14.25 7.171875 -14.96875 C 8.535156 -15.695312 9.972656 -16.304688 11.484375 -16.796875 C 13.003906 -17.285156 14.445312 -17.753906 15.8125 -18.203125 C 17.175781 -18.648438 18.296875 -19.171875 19.171875 -19.765625 C 20.046875 -20.367188 20.484375 -21.160156 20.484375 -22.140625 L 20.484375 -26.109375 C 20.484375 -27.898438 20.210938 -29.265625 19.671875 -30.203125 C 19.140625 -31.140625 18.425781 -31.769531 17.53125 -32.09375 C 16.632812 -32.414062 15.632812 -32.578125 14.53125 -32.578125 C 13.457031 -32.578125 12.3125 -32.425781 11.09375 -32.125 C 9.882812 -31.832031 8.914062 -31.210938 8.1875 -30.265625 C 9 -30.097656 9.703125 -29.671875 10.296875 -28.984375 C 10.898438 -28.304688 11.203125 -27.4375 11.203125 -26.375 C 11.203125 -25.300781 10.859375 -24.453125 10.171875 -23.828125 C 9.492188 -23.210938 8.617188 -22.90625 7.546875 -22.90625 C 6.316406 -22.90625 5.410156 -23.300781 4.828125 -24.09375 C 4.253906 -24.882812 3.96875 -25.769531 3.96875 -26.75 C 3.96875 -27.863281 4.242188 -28.757812 4.796875 -29.4375 C 5.347656 -30.125 6.050781 -30.765625 6.90625 -31.359375 C 7.894531 -32.046875 9.164062 -32.632812 10.71875 -33.125 C 12.28125 -33.613281 14.039062 -33.859375 16 -33.859375 C 17.75 -33.859375 19.242188 -33.65625 20.484375 -33.25 C 21.722656 -32.84375 22.742188 -32.253906 23.546875 -31.484375 C 24.660156 -30.460938 25.382812 -29.210938 25.71875 -27.734375 C 26.0625 -26.265625 26.234375 -24.507812 26.234375 -22.46875 L 26.234375 -4.671875 C 26.234375 -3.609375 26.394531 -2.835938 26.71875 -2.359375 C 27.039062 -1.890625 27.539062 -1.65625 28.21875 -1.65625 C 28.6875 -1.65625 29.132812 -1.757812 29.5625 -1.96875 C 29.988281 -2.1875 30.503906 -2.535156 31.109375 -3.015625 L 31.8125 -1.921875 C 30.914062 -1.234375 30.0625 -0.664062 29.25 -0.21875 C 28.4375 0.226562 27.347656 0.453125 25.984375 0.453125 C 24.742188 0.453125 23.71875 0.238281 22.90625 -0.1875 C 22.101562 -0.613281 21.5 -1.242188 21.09375 -2.078125 C 20.6875 -2.910156 20.484375 -3.96875 20.484375 -5.25 C 19.328125 -3.332031 17.945312 -1.898438 16.34375 -0.953125 C 14.75 -0.015625 12.945312 0.453125 10.9375 0.453125 Z M 13.25 -2.109375 C 14.65625 -2.109375 15.96875 -2.515625 17.1875 -3.328125 C 18.40625 -4.140625 19.503906 -5.351562 20.484375 -6.96875 L 20.484375 -19.515625 C 19.972656 -18.796875 19.222656 -18.1875 18.234375 -17.6875 C 17.253906 -17.195312 16.1875 -16.707031 15.03125 -16.21875 C 13.882812 -15.726562 12.785156 -15.148438 11.734375 -14.484375 C 10.691406 -13.828125 9.828125 -12.960938 9.140625 -11.890625 C 8.460938 -10.828125 8.125 -9.445312 8.125 -7.75 C 8.125 -6.039062 8.582031 -4.671875 9.5 -3.640625 C 10.414062 -2.617188 11.664062 -2.109375 13.25 -2.109375 Z M 13.25 -2.109375 "/></g></g></g><g fill="#000000" fill-opacity="1"><g transform="translate(890.433149, 961.411001)"><g><path d="M 12.15625 -43.578125 L 12.15625 -32.890625 L 21.625 -32.890625 L 21.625 -31.609375 L 12.15625 -31.609375 L 12.15625 -6.84375 C 12.15625 -4.84375 12.519531 -3.4375 13.25 -2.625 C 13.976562 -1.8125 14.976562 -1.40625 16.25 -1.40625 C 17.53125 -1.40625 18.640625 -1.925781 19.578125 -2.96875 C 20.515625 -4.019531 21.328125 -5.78125 22.015625 -8.25 L 23.296875 -7.9375 C 22.867188 -5.457031 22.023438 -3.363281 20.765625 -1.65625 C 19.503906 0.0390625 17.570312 0.890625 14.96875 0.890625 C 13.519531 0.890625 12.328125 0.707031 11.390625 0.34375 C 10.453125 -0.0078125 9.617188 -0.53125 8.890625 -1.21875 C 7.953125 -2.195312 7.300781 -3.367188 6.9375 -4.734375 C 6.582031 -6.097656 6.40625 -7.910156 6.40625 -10.171875 L 6.40625 -31.609375 L 0.25 -31.609375 L 0.25 -32.890625 L 6.40625 -32.890625 L 6.40625 -42.6875 C 7.46875 -42.726562 8.488281 -42.8125 9.46875 -42.9375 C 10.445312 -43.070312 11.34375 -43.285156 12.15625 -43.578125 Z M 12.15625 -43.578125 "/></g></g></g><g fill="#000000" fill-opacity="1"><g transform="translate(913.087734, 961.411001)"><g><path d="M 9.15625 -48.953125 C 10.257812 -48.953125 11.21875 -48.546875 12.03125 -47.734375 C 12.84375 -46.929688 13.25 -45.972656 13.25 -44.859375 C 13.25 -43.753906 12.84375 -42.796875 12.03125 -41.984375 C 11.21875 -41.171875 10.257812 -40.765625 9.15625 -40.765625 C 8.039062 -40.765625 7.078125 -41.171875 6.265625 -41.984375 C 5.453125 -42.796875 5.046875 -43.753906 5.046875 -44.859375 C 5.046875 -45.972656 5.453125 -46.929688 6.265625 -47.734375 C 7.078125 -48.546875 8.039062 -48.953125 9.15625 -48.953125 Z M 12.484375 -33.65625 L 12.484375 -5.953125 C 12.484375 -4.160156 12.851562 -2.941406 13.59375 -2.296875 C 14.34375 -1.660156 15.59375 -1.34375 17.34375 -1.34375 L 17.34375 0 C 16.613281 -0.0390625 15.515625 -0.09375 14.046875 -0.15625 C 12.578125 -0.21875 11.09375 -0.25 9.59375 -0.25 C 8.144531 -0.25 6.671875 -0.21875 5.171875 -0.15625 C 3.679688 -0.09375 2.578125 -0.0390625 1.859375 0 L 1.859375 -1.34375 C 3.609375 -1.34375 4.851562 -1.660156 5.59375 -2.296875 C 6.34375 -2.941406 6.71875 -4.160156 6.71875 -5.953125 L 6.71875 -25.984375 C 6.71875 -27.898438 6.375 -29.316406 5.6875 -30.234375 C 5.007812 -31.148438 3.734375 -31.609375 1.859375 -31.609375 L 1.859375 -32.953125 C 3.222656 -32.828125 4.546875 -32.765625 5.828125 -32.765625 C 7.066406 -32.765625 8.25 -32.835938 9.375 -32.984375 C 10.507812 -33.140625 11.546875 -33.363281 12.484375 -33.65625 Z M 12.484375 -33.65625 "/></g></g></g><g fill="#000000" fill-opacity="1"><g transform="translate(931.838602, 961.411001)"><g><path d="M 31.109375 -32.953125 L 31.109375 -31.6875 C 30.296875 -31.59375 29.546875 -31.222656 28.859375 -30.578125 C 28.179688 -29.941406 27.539062 -28.816406 26.9375 -27.203125 L 16.453125 0.3125 C 16.273438 0.3125 16.101562 0.3125 15.9375 0.3125 C 15.769531 0.3125 15.578125 0.3125 15.359375 0.3125 L 3.578125 -28.03125 C 2.898438 -29.695312 2.226562 -30.707031 1.5625 -31.0625 C 0.90625 -31.425781 0.34375 -31.609375 -0.125 -31.609375 L -0.125 -32.953125 C 0.726562 -32.910156 1.613281 -32.859375 2.53125 -32.796875 C 3.445312 -32.734375 4.4375 -32.703125 5.5 -32.703125 C 6.820312 -32.703125 8.21875 -32.722656 9.6875 -32.765625 C 11.164062 -32.804688 12.546875 -32.867188 13.828125 -32.953125 L 13.828125 -31.609375 C 12.753906 -31.609375 11.800781 -31.535156 10.96875 -31.390625 C 10.144531 -31.242188 9.613281 -30.828125 9.375 -30.140625 C 9.144531 -29.460938 9.347656 -28.289062 9.984375 -26.625 L 17.984375 -6.84375 L 17.59375 -6.53125 L 24.890625 -25.65625 C 25.453125 -27.070312 25.675781 -28.191406 25.5625 -29.015625 C 25.457031 -29.847656 25.03125 -30.476562 24.28125 -30.90625 C 23.539062 -31.332031 22.398438 -31.59375 20.859375 -31.6875 L 20.859375 -32.953125 C 21.628906 -32.910156 22.289062 -32.878906 22.84375 -32.859375 C 23.40625 -32.835938 23.953125 -32.816406 24.484375 -32.796875 C 25.015625 -32.773438 25.597656 -32.765625 26.234375 -32.765625 C 27.222656 -32.765625 28.109375 -32.785156 28.890625 -32.828125 C 29.679688 -32.867188 30.421875 -32.910156 31.109375 -32.953125 Z M 31.109375 -32.953125 "/></g></g></g><g fill="#000000" fill-opacity="1"><g transform="translate(962.556693, 961.411001)"><g><path d="M 17.40625 -33.859375 C 21.164062 -33.859375 24.097656 -32.71875 26.203125 -30.4375 C 28.316406 -28.15625 29.375 -24.601562 29.375 -19.78125 L 6.78125 -19.78125 L 6.71875 -20.984375 L 23.234375 -20.984375 C 23.316406 -23.078125 23.144531 -25.007812 22.71875 -26.78125 C 22.289062 -28.550781 21.617188 -29.96875 20.703125 -31.03125 C 19.785156 -32.101562 18.601562 -32.640625 17.15625 -32.640625 C 15.1875 -32.640625 13.441406 -31.65625 11.921875 -29.6875 C 10.410156 -27.726562 9.507812 -24.617188 9.21875 -20.359375 L 9.40625 -20.09375 C 9.320312 -19.457031 9.257812 -18.753906 9.21875 -17.984375 C 9.175781 -17.210938 9.15625 -16.445312 9.15625 -15.6875 C 9.15625 -12.78125 9.625 -10.28125 10.5625 -8.1875 C 11.5 -6.101562 12.722656 -4.515625 14.234375 -3.421875 C 15.753906 -2.335938 17.320312 -1.796875 18.9375 -1.796875 C 20.21875 -1.796875 21.429688 -2 22.578125 -2.40625 C 23.734375 -2.8125 24.800781 -3.484375 25.78125 -4.421875 C 26.769531 -5.359375 27.628906 -6.613281 28.359375 -8.1875 L 29.625 -7.6875 C 29.15625 -6.269531 28.390625 -4.898438 27.328125 -3.578125 C 26.265625 -2.253906 24.921875 -1.175781 23.296875 -0.34375 C 21.671875 0.476562 19.789062 0.890625 17.65625 0.890625 C 14.59375 0.890625 11.960938 0.1875 9.765625 -1.21875 C 7.566406 -2.625 5.878906 -4.570312 4.703125 -7.0625 C 3.523438 -9.5625 2.9375 -12.4375 2.9375 -15.6875 C 2.9375 -19.4375 3.535156 -22.664062 4.734375 -25.375 C 5.929688 -28.082031 7.617188 -30.171875 9.796875 -31.640625 C 11.972656 -33.117188 14.507812 -33.859375 17.40625 -33.859375 Z M 17.40625 -33.859375 "/></g></g></g></svg>