<svg xmlns="http://www.w3.org/2000/svg" width="100%" viewBox="0 0 128 22" fill="none"><g clip-path="url(#clip0_3410_14129)"><path d="M37.8332 8.89934C37.298 8.75679 36.7986 8.68575 36.1208 8.68575C34.0873 8.68575 31.7683 9.89626 31.7683 13.2074V21.0048H27.5225V4.55555H31.7683L31.697 8.2781C32.3747 5.39415 34.1586 3.98583 38.2613 4.19942L37.8332 8.89934Z" fill="#1a1a1a"></path><path d="M51.9255 16.3761C51.9255 17.5511 52.425 17.9073 53.1387 17.9073C53.5312 17.9073 53.8164 17.8005 54.1376 17.6579V20.7912C53.5312 21.1471 52.7462 21.2897 51.7473 21.2897C49.7137 21.2897 48.4293 20.5063 48.0012 18.6906C47.2162 20.7199 45.3612 21.432 43.1848 21.432C40.2593 21.432 38.2969 19.7585 38.2969 16.9459C38.2969 13.2786 41.2226 11.2493 47.68 11.6052V9.86072C47.68 8.25831 46.895 7.40396 45.4325 7.40396C43.9339 7.40396 43.1491 8.32959 43.0422 9.89622L38.8679 9.14842C39.1175 5.65925 42.1143 4.16388 45.6465 4.16388C49.4282 4.16388 51.9255 5.76603 51.9255 9.46905V16.3761ZM47.68 13.9907C43.9698 13.8839 42.5427 14.8095 42.5427 16.4829C42.5427 17.5869 43.2918 18.3699 44.6475 18.3699C46.039 18.3699 47.68 17.6224 47.68 15.9135V13.9907Z" fill="#1a1a1a"></path><path d="M65.0527 15.7709L68.6916 16.9459C67.9068 20.257 64.9814 21.432 61.7704 21.432C57.168 21.432 54.0283 18.3699 54.0283 12.9937C54.0283 7.3682 57.061 4.16388 61.8774 4.16388C66.4082 4.16388 68.6916 7.19035 68.6916 11.3561C68.6916 12.1394 68.6205 12.9225 68.442 13.5635H58.1313C58.2382 16.3051 59.5227 18.1564 61.913 18.1564C63.376 18.1564 64.4819 17.5869 65.0527 15.7709ZM64.5889 11.0355C64.6245 10.7863 64.6245 10.6438 64.6245 10.4302C64.6245 8.68572 63.59 7.3682 61.6988 7.3682C59.7369 7.3682 58.4881 8.79252 58.2382 11.0355H64.5889Z" fill="#1a1a1a"></path><path d="M74.7684 7.72433C75.6603 5.26758 77.3503 4.16388 79.8833 4.16388C82.4879 4.16388 84.7712 5.65925 84.7712 9.3265V21.0048H80.5254V10.8218C80.5254 8.93484 79.8833 7.75984 78.0997 7.75984C76.3871 7.75984 74.7814 8.68572 74.7814 11.8188V21.0048H70.5361V4.55552H74.7684V7.72433Z" fill="#1a1a1a"></path><path d="M97.3874 15.7709L101.027 16.9459C100.242 20.257 97.3161 21.432 94.1051 21.432C89.503 21.432 86.3633 18.3699 86.3633 12.9937C86.3633 7.3682 89.3957 4.16388 94.2123 4.16388C98.7432 4.16388 101.027 7.19035 101.027 11.3561C101.027 12.1394 100.955 12.9225 100.777 13.5635H90.466C90.5729 16.3051 91.8574 18.1564 94.2477 18.1564C95.7107 18.1564 96.8166 17.5869 97.3874 15.7709ZM96.9236 11.0355C96.9595 10.7863 96.9595 10.6438 96.9595 10.4302C96.9595 8.68572 95.9247 7.3682 94.0338 7.3682C92.0716 7.3682 90.8228 8.79252 90.5729 11.0355H96.9236Z" fill="#1a1a1a"></path><path d="M105.343 15.9135C105.664 17.7292 106.984 18.4412 108.661 18.4412C110.195 18.4412 111.265 17.9073 111.265 16.7678C111.265 15.6996 110.623 15.1656 109.017 14.7385L106.591 14.1687C103.666 13.4567 102.382 11.8545 102.382 9.36201C102.382 5.37436 105.628 4.16388 108.946 4.16388C112.693 4.16388 114.976 5.51693 115.261 8.72125L111.23 9.29097C111.087 7.86665 110.266 7.33267 108.732 7.33267C107.376 7.33267 106.52 7.93792 106.52 8.9706C106.52 9.89622 107.02 10.466 108.34 10.7151L110.659 11.2493C113.87 11.9613 115.439 13.599 115.439 16.4119C115.439 20.0434 112.514 21.432 108.625 21.432C104.665 21.432 102.346 20.2927 101.775 17.2307L105.343 15.9135Z" fill="#1a1a1a"></path><path d="M127.891 20.3996C126.606 21.0761 125.001 21.432 123.181 21.432C120.006 21.432 117.972 19.9011 117.972 16.3407V7.86668H115.582V4.55556H118.008V1.06639L122.254 0.567932V4.55556H127.141V7.86668H122.218V15.415C122.218 17.1953 122.967 17.8005 124.287 17.8005C125.322 17.8005 126.178 17.4799 127.141 16.8391L127.891 20.3996Z" fill="#1a1a1a"></path><path d="M21.3683 7.93957C21.2668 8.50405 21.1192 9.08082 20.9266 9.66393C20.4343 11.151 20.0394 12.6686 19.7689 14.2116C19.349 16.6073 17.9408 18.5175 16.0185 19.9774C14.1776 21.3763 11.9752 21.6818 9.8001 21.2513C9.18687 21.1302 8.59178 20.9409 8.02298 20.6916C7.40963 20.4228 6.92372 19.9258 6.67381 19.3055C6.50021 18.8746 6.04869 17.278 5.92877 16.8671C5.89412 16.7484 6.00698 16.6414 6.12544 16.6777C6.14942 16.6851 6.17358 16.6921 6.1979 16.6987C9.0402 17.4746 13.4184 17.3999 16.8514 14.4312C17.7013 13.6958 18.4518 12.9072 19.0949 12.0923C19.6095 11.4397 19.7976 10.5893 19.6027 9.7821C19.308 8.56268 18.8075 7.34781 18.0925 6.19611C17.076 4.55857 15.7516 3.25188 14.2815 2.32834C13.3816 1.76294 12.2302 1.78704 11.3476 2.37879C9.99775 3.2837 8.69478 4.50538 7.56488 5.9975C5.61429 8.57268 4.57956 11.4242 4.51899 13.8594H4.51626C4.51023 13.9806 4.42108 15.9959 5.1722 18.4767C5.20942 18.5997 5.06194 18.695 4.96538 18.6101C3.78908 17.5755 2.79383 16.4961 2.02144 15.5715C-0.0616695 13.0772 -0.590873 9.6203 0.696158 6.63789C1.49998 4.7749 2.89358 3.09507 4.80363 1.91384C6.49189 0.869855 8.45067 0.545349 10.3921 0.846676C11.829 1.06983 13.2959 1.04302 14.7214 0.758051C15.1869 0.665331 15.6432 0.606245 16.0859 0.581245H16.09C16.4293 0.56216 16.7608 0.563524 17.0823 0.585794H17.0837C18.5493 0.686692 19.8049 1.21619 20.6633 2.20472C21.8939 3.62184 22.0733 5.71162 21.3683 7.93957Z" fill="#1a1a1a"></path></g></svg>
